<svg width="101" height="124" viewBox="0 0 101 124" fill="none" xmlns="http://www.w3.org/2000/svg">
<path fill-rule="evenodd" clip-rule="evenodd" d="M57.74 9.78437C53.6123 20.0396 51.7531 22.1285 48.877 19.7408C47.7961 18.8432 46.0863 16.5145 45.0782 14.5661C44.0714 12.6165 42.7344 11.0222 42.108 11.0222C40.5425 11.0222 39.0649 15.937 39.3537 20.1814C39.5608 23.2157 39.2834 23.5245 37.3036 22.465C34.8971 21.177 23.2911 9.57974 20.3209 5.49473C19.3655 4.1816 17.9846 3.47733 17.2514 3.92927C15.4663 5.03275 20.9636 20.1375 25.1478 25.6223L28.3101 29.7688L23.0827 32.4365C16.0387 36.0294 6.96862 45.4159 3.13845 53.0774C0.336442 58.6815 0 60.9022 0 73.7912C0 87.1359 0.267396 88.7566 3.53641 95.208C8.56044 105.121 18.4503 114.832 28.2461 119.472C35.5323 122.922 37.9087 123.386 50.44 123.804C63.4156 124.236 65.0112 124.027 71.5818 121.019C80.5791 116.899 92.0119 105.374 96.825 95.5708C99.9133 89.2826 100.495 86.4254 100.872 75.6743C101.534 56.9026 99.8141 50.9973 91.1846 42.4092C87.2942 38.5376 81.1955 33.9266 77.6328 32.1628L71.155 28.9553L76.6423 22.814C87.2992 10.8853 87.4473 6.47644 76.926 14.4079C73.2816 17.1535 69.0196 20.0823 67.4529 20.9171C64.6659 22.4022 64.622 22.3256 65.4066 17.4133C66.4636 10.8062 64.9597 0.979126 62.8921 0.979126C62.0083 0.979126 59.6896 4.94111 57.74 9.78437Z" fill="#008000"/>
<path fill-rule="evenodd" clip-rule="evenodd" d="M57.74 9.78437C53.6123 20.0396 51.7531 22.1285 48.877 19.7408C47.7961 18.8432 46.0863 16.5145 45.0782 14.5661C44.0714 12.6165 42.7344 11.0222 42.108 11.0222C40.5425 11.0222 39.0649 15.937 39.3537 20.1814C39.5608 23.2157 39.2834 23.5245 37.3036 22.465C34.8971 21.177 23.2911 9.57974 20.3209 5.49473C19.3655 4.1816 17.9846 3.47733 17.2514 3.92927C15.4663 5.03275 20.9636 20.1375 25.1478 25.6223L28.3101 29.7688L23.0827 32.4365C16.0387 36.0294 6.96862 45.4159 3.13845 53.0774C0.336442 58.6815 0 60.9022 0 73.7912C0 87.1359 0.267396 88.7566 3.53641 95.208C8.56044 105.121 18.4503 114.832 28.2461 119.472C35.5323 122.922 37.9087 123.386 50.44 123.804C63.4156 124.236 65.0112 124.027 71.5818 121.019C80.5791 116.899 92.0119 105.374 96.825 95.5708C99.9133 89.2826 100.495 86.4254 100.872 75.6743C101.534 56.9026 99.8141 50.9973 91.1846 42.4092C87.2942 38.5376 81.1955 33.9266 77.6328 32.1628L71.155 28.9553L76.6423 22.814C87.2992 10.8853 87.4473 6.47644 76.926 14.4079C73.2816 17.1535 69.0196 20.0823 67.4529 20.9171C64.6659 22.4022 64.622 22.3256 65.4066 17.4133C66.4636 10.8062 64.9597 0.979126 62.8921 0.979126C62.0083 0.979126 59.6896 4.94111 57.74 9.78437ZM61.5451 21.005C59.6457 24.677 59.672 24.8314 62.1715 24.8314C65.094 24.8314 71.6785 21.7569 75.009 18.8357C79.6238 14.7896 76.9498 19.5324 71.8706 24.402C62.5418 33.3441 57.327 36.1298 49.9102 36.1298C37.9891 36.1298 28.3892 29.6219 23.0576 17.9268C19.4057 9.91493 20.3284 8.97465 25.7717 15.1599C31.136 21.2535 37.9389 26.0867 41.1526 26.0867C42.7646 26.0867 42.8637 25.4817 41.7414 22.5051C40.997 20.5367 40.7886 17.8841 41.2757 16.6136C42.0565 14.5799 42.4482 14.7707 44.5334 18.1992C46.9839 22.2277 51.0526 24.3706 53.4466 22.8905C54.1998 22.4248 55.9548 19.4232 57.3446 16.2195C63.0603 3.04548 62.6762 3.41708 63.1218 10.6481C63.3804 14.8448 62.8168 18.5457 61.5451 21.005Z" fill="#CDC3C3"/>
<path fill-rule="evenodd" clip-rule="evenodd" d="M57.74 9.78437C53.6123 20.0396 51.7531 22.1285 48.877 19.7408C47.7961 18.8432 46.0863 16.5145 45.0782 14.5661C44.0714 12.6165 42.7344 11.0222 42.108 11.0222C40.5425 11.0222 39.0649 15.937 39.3537 20.1814C39.5608 23.2157 39.2834 23.5245 37.3036 22.465C34.8971 21.177 23.2911 9.57974 20.3209 5.49473C19.3655 4.1816 17.9846 3.47733 17.2514 3.92927C15.4663 5.03275 20.9636 20.1375 25.1478 25.6223L28.3101 29.7688L23.0827 32.4365C16.0387 36.0294 6.96862 45.4159 3.13845 53.0774C0.336442 58.6815 0 60.9022 0 73.7912C0 87.1359 0.267396 88.7566 3.53641 95.208C8.56044 105.121 18.4503 114.832 28.2461 119.472C35.5323 122.922 37.9087 123.386 50.44 123.804C63.4156 124.236 65.0112 124.027 71.5818 121.019C80.5791 116.899 92.0119 105.374 96.825 95.5708C99.9133 89.2826 100.495 86.4254 100.872 75.6743C101.534 56.9026 99.8141 50.9973 91.1846 42.4092C87.2942 38.5376 81.1955 33.9266 77.6328 32.1628L71.155 28.9553L76.6423 22.814C87.2992 10.8853 87.4473 6.47644 76.926 14.4079C73.2816 17.1535 69.0196 20.0823 67.4529 20.9171C64.6659 22.4022 64.622 22.3256 65.4066 17.4133C66.4636 10.8062 64.9597 0.979126 62.8921 0.979126C62.0083 0.979126 59.6896 4.94111 57.74 9.78437ZM61.5451 21.005C59.6457 24.677 59.672 24.8314 62.1715 24.8314C65.094 24.8314 71.6785 21.7569 75.009 18.8357C79.6238 14.7896 76.9498 19.5324 71.8706 24.402C62.5418 33.3441 57.327 36.1298 49.9102 36.1298C37.9891 36.1298 28.3892 29.6219 23.0576 17.9268C19.4057 9.91493 20.3284 8.97465 25.7717 15.1599C31.136 21.2535 37.9389 26.0867 41.1526 26.0867C42.7646 26.0867 42.8637 25.4817 41.7414 22.5051C40.997 20.5367 40.7886 17.8841 41.2757 16.6136C42.0565 14.5799 42.4482 14.7707 44.5334 18.1992C46.9839 22.2277 51.0526 24.3706 53.4466 22.8905C54.1998 22.4248 55.9548 19.4232 57.3446 16.2195C63.0603 3.04548 62.6762 3.41708 63.1218 10.6481C63.3804 14.8448 62.8168 18.5457 61.5451 21.005ZM49.5876 57.9383C49.5876 58.8045 47.7522 61.1721 45.5076 63.1996L41.4276 66.8866L45.0431 62.882C47.289 60.3925 48.3648 58.1103 47.8815 56.8536C47.4308 55.6773 47.6254 55.1513 48.346 55.597C49.0289 56.0188 49.5876 57.0721 49.5876 57.9383ZM58.035 55.7188C57.6182 56.1356 56.5348 56.1807 55.6297 55.8179C54.6279 55.4175 54.9254 55.1199 56.388 55.0597C57.7111 55.0057 58.4518 55.302 58.035 55.7188ZM58.3752 59.982C59.4109 60.6512 59.6934 61.1985 59.0029 61.1985C58.3125 61.1985 56.9001 60.6512 55.8645 59.982C54.8288 59.3129 54.5463 58.7656 55.2368 58.7656C55.9272 58.7656 57.3395 59.3129 58.3752 59.982ZM48.0183 80.9331C46.8107 81.2494 44.8322 81.2494 43.6245 80.9331C42.4168 80.618 43.4048 80.3594 45.8214 80.3594C48.238 80.3594 49.226 80.618 48.0183 80.9331ZM58.0764 80.9306C56.8763 81.2444 54.6166 81.2557 53.0549 80.9557C51.4932 80.6557 52.4749 80.3983 55.2368 80.3845C57.9986 80.3707 59.2766 80.6167 58.0764 80.9306ZM18.5169 82.1546C17.6544 82.5036 16.2421 82.5036 15.3784 82.1546C14.516 81.8068 15.2215 81.5219 16.9476 81.5219C18.6738 81.5219 19.3806 81.8068 18.5169 82.1546ZM48.0334 83.4413C46.8332 83.7552 44.5736 83.7665 43.0119 83.4665C41.4502 83.1664 42.4319 82.9091 45.1937 82.8953C47.9556 82.8814 49.2335 83.1275 48.0334 83.4413ZM58.0764 83.4413C56.8763 83.7552 54.6166 83.7665 53.0549 83.4665C51.4932 83.1664 52.4749 82.9091 55.2368 82.8953C57.9986 82.8814 59.2766 83.1275 58.0764 83.4413ZM51.7581 98.4017C51.3413 98.8185 50.2579 98.8637 49.3528 98.5009C48.351 98.1004 48.6485 97.8029 50.111 97.7426C51.4342 97.6887 52.1749 97.9849 51.7581 98.4017Z" fill="#B78D8D"/>
<path fill-rule="evenodd" clip-rule="evenodd" d="M57.7915 9.84085C55.7452 14.7105 53.3437 19.2964 52.4561 20.0333C50.4613 21.6891 47.7057 19.6466 45.0782 14.5661C44.0714 12.6165 42.7344 11.0222 42.108 11.0222C40.5425 11.0222 39.0649 15.937 39.3537 20.1814C39.5608 23.2157 39.2834 23.5245 37.3036 22.465C34.8971 21.1769 23.2911 9.57973 20.3209 5.49472C19.3655 4.18159 17.9846 3.47732 17.2514 3.92926C15.4663 5.03274 20.9636 20.1375 25.1478 25.6222L28.3101 29.7688L23.3777 32.2858C16.4229 35.8335 6.83555 45.682 3.13845 53.0774C0.336442 58.6814 0 60.9022 0 73.7912C0 87.1359 0.267396 88.7566 3.53641 95.208C8.56044 105.121 18.4503 114.832 28.2461 119.472C35.5323 122.922 37.9087 123.386 50.44 123.804C63.4156 124.236 65.0112 124.027 71.5818 121.019C80.5791 116.898 92.0119 105.374 96.825 95.5708C99.9133 89.2826 100.495 86.4254 100.872 75.6743C101.534 56.9026 99.8141 50.9973 91.1846 42.4092C87.2942 38.5376 81.1955 33.9266 77.6328 32.1628L71.155 28.9553L76.6423 22.814C87.2992 10.8853 87.4473 6.47643 76.926 14.4079C73.2816 17.1534 69.0196 20.0822 67.4529 20.9171C64.6659 22.4022 64.622 22.3256 65.4066 17.4133C66.4285 11.0284 64.9597 0.977857 63.0063 0.984134C62.1853 0.986645 59.839 4.97248 57.7915 9.84085ZM61.5451 21.005C59.6457 24.6769 59.672 24.8314 62.1715 24.8314C65.094 24.8314 71.6785 21.7569 75.009 18.8357C79.6238 14.7896 76.9498 19.5324 71.8706 24.402C62.5418 33.3441 57.327 36.1298 49.9102 36.1298C37.9891 36.1298 28.3892 29.6219 23.0576 17.9268C19.4057 9.91491 20.3284 8.97463 25.7717 15.1599C31.136 21.2535 37.9389 26.0867 41.1526 26.0867C42.7646 26.0867 42.8637 25.4816 41.7414 22.5051C40.997 20.5367 40.7886 17.8841 41.2757 16.6136C42.0565 14.5799 42.4482 14.7707 44.5334 18.1992C46.9839 22.2277 51.0526 24.3706 53.4466 22.8905C54.1998 22.4248 55.9548 19.4232 57.3446 16.2194C63.0603 3.04547 62.6762 3.41706 63.1218 10.6481C63.3804 14.8448 62.8168 18.5457 61.5451 21.005ZM49.1582 56.9076C49.5813 58.0098 48.7464 60.0875 47.2362 61.6956C43.8693 65.2785 43.8906 65.9539 47.3906 66.628C49.4331 67.0222 49.0854 67.2193 46.1353 67.3436C41.2368 67.5482 41.0171 66.4159 45.1937 62.4928C49.3277 58.6086 49.3465 55.7288 45.2314 56.5159C43.5266 56.8423 42.4294 56.6251 42.7947 56.0351C43.9107 54.2286 48.3648 54.84 49.1582 56.9076ZM57.7475 55.8556C53.9149 56.7783 52.4147 58.7266 55.5393 58.7266C57.0182 58.7266 58.5259 59.21 58.8899 59.8C59.2552 60.39 57.8781 60.8143 55.8293 60.7415C53.7805 60.6687 52.1033 60.0159 52.1008 59.2916C52.0958 57.0946 54.9556 54.9517 57.6848 55.1061C60.2043 55.2492 60.2056 55.2643 57.7475 55.8556ZM57.9019 65.5584C60.1428 64.8504 60.1466 64.8855 57.9848 66.269C55.4452 67.8947 52.0983 67.1101 52.0983 64.8893C52.0983 63.8034 52.5302 63.7984 53.822 64.8717C54.771 65.6589 56.6064 65.9677 57.9019 65.5584ZM55.2368 81.1779L50.2152 81.7754L55.2368 82.6304C58.3489 83.1614 54.7673 83.4564 45.8214 83.4062C37.8811 83.3622 33.3618 83.0547 35.7784 82.722L40.1722 82.1182L35.1507 81.316C32.2683 80.8565 36.5479 80.5288 45.1937 80.5477C53.4792 80.5653 57.9986 80.849 55.2368 81.1779ZM69.6737 81.3235C69.6737 82.014 69.1087 82.5789 68.4183 82.5789C67.7278 82.5789 67.1629 82.014 67.1629 81.3235C67.1629 80.633 67.7278 80.0681 68.4183 80.0681C69.1087 80.0681 69.6737 80.633 69.6737 81.3235ZM91.3528 80.8916C90.5029 81.2356 88.8082 81.257 87.5867 80.9381C86.3652 80.6192 87.0607 80.338 89.1321 80.3129C91.2034 80.2878 92.2027 80.5477 91.3528 80.8916ZM19.1596 82.1859C17.9595 82.4998 15.6998 82.5111 14.1381 82.2111C12.5764 81.911 13.5581 81.6537 16.32 81.6399C19.0818 81.626 20.3598 81.8721 19.1596 82.1859ZM43.0119 82.2111C44.5736 82.5111 46.8332 82.4998 48.0334 82.1859C49.2335 81.8721 47.9556 81.626 45.1937 81.6399C42.4319 81.6537 41.4502 81.911 43.0119 82.2111ZM64.966 83.4099C64.1035 83.7589 62.6912 83.7589 61.8275 83.4099C60.9651 83.0622 61.6706 82.7772 63.3967 82.7772C65.1229 82.7772 65.8297 83.0622 64.966 83.4099ZM51.9941 89.2111C51.7066 89.4069 50.3408 90.3949 48.9599 91.408C46.6374 93.1115 46.5784 93.0852 48.1715 91.0527C49.1193 89.8438 50.4852 88.8558 51.2057 88.8558C51.9263 88.8558 52.2816 89.0152 51.9941 89.2111ZM53.0549 98.5059C51.8548 98.8197 49.5951 98.831 48.0334 98.531C46.4717 98.231 47.4534 97.9736 50.2152 97.9598C52.9771 97.946 54.2551 98.1921 53.0549 98.5059Z" fill="#B75858"/>
<path fill-rule="evenodd" clip-rule="evenodd" d="M57.7915 9.84085C55.7452 14.7105 53.3437 19.2964 52.4561 20.0333C50.4613 21.6891 47.7057 19.6466 45.0782 14.5661C44.0714 12.6165 42.7344 11.0222 42.108 11.0222C40.5425 11.0222 39.0649 15.937 39.3537 20.1814C39.5608 23.2157 39.2834 23.5245 37.3036 22.465C34.8971 21.1769 23.2911 9.57973 20.3209 5.49472C19.3655 4.18159 17.9846 3.47732 17.2514 3.92926C15.4663 5.03274 20.9636 20.1375 25.1478 25.6222L28.3101 29.7688L23.3777 32.2858C16.4229 35.8335 6.83555 45.682 3.13845 53.0774C0.336442 58.6814 0 60.9022 0 73.7912C0 87.1359 0.267396 88.7566 3.53641 95.208C8.56044 105.121 18.4503 114.832 28.2461 119.472C35.5323 122.922 37.9087 123.386 50.44 123.804C63.4156 124.236 65.0112 124.027 71.5818 121.019C80.5791 116.898 92.0119 105.374 96.825 95.5708C99.9133 89.2826 100.495 86.4254 100.872 75.6743C101.534 56.9026 99.8141 50.9973 91.1846 42.4092C87.2942 38.5376 81.1955 33.9266 77.6328 32.1628L71.155 28.9553L76.6423 22.814C87.2992 10.8853 87.4473 6.47643 76.926 14.4079C73.2816 17.1534 69.0196 20.0822 67.4529 20.9171C64.6659 22.4022 64.622 22.3256 65.4066 17.4133C66.4285 11.0284 64.9597 0.977857 63.0063 0.984134C62.1853 0.986645 59.839 4.97248 57.7915 9.84085ZM61.5451 21.005C59.6457 24.6769 59.672 24.8314 62.1715 24.8314C65.094 24.8314 71.6785 21.7569 75.009 18.8357C79.6238 14.7896 76.9498 19.5324 71.8706 24.402C62.5418 33.3441 57.327 36.1298 49.9102 36.1298C37.9891 36.1298 28.3892 29.6219 23.0576 17.9268C19.4057 9.91491 20.3284 8.97463 25.7717 15.1599C31.136 21.2535 37.9389 26.0867 41.1526 26.0867C42.7646 26.0867 42.8637 25.4816 41.7414 22.5051C40.997 20.5367 40.7886 17.8841 41.2757 16.6136C42.0565 14.5799 42.4482 14.7707 44.5334 18.1992C46.9839 22.2277 51.0526 24.3706 53.4466 22.8905C54.1998 22.4248 55.9548 19.4232 57.3446 16.2194C63.0603 3.04547 62.6762 3.41706 63.1218 10.6481C63.3804 14.8448 62.8168 18.5457 61.5451 21.005ZM48.882 55.6899C50.9095 57.7161 50.6408 58.9388 47.3191 62.8066C45.6331 64.7688 45.6457 65.0035 47.4358 65.0035C48.5381 65.0035 49.7884 65.5685 50.2152 66.2589C50.6772 67.0059 49.1821 67.5143 46.5232 67.5143C41.2305 67.5143 40.9907 66.5188 45.1937 61.9844C46.9199 60.1214 48.3322 58.0613 48.3322 57.406C48.3322 55.7288 45.3582 55.9259 43.5617 57.7223C42.7244 58.5597 42.0553 58.6714 42.0553 57.9734C42.0553 56.5172 44.6426 53.7051 45.9834 53.7051C46.4855 53.7051 47.7898 54.5977 48.882 55.6899ZM57.4337 55.8468C54.3304 56.4444 53.5257 58.7266 56.4181 58.7266C57.4136 58.7266 58.5183 59.1974 58.8736 59.7724C59.2289 60.3486 57.8505 60.8194 55.8092 60.8194C53.1114 60.8194 52.0983 60.2193 52.0983 58.6224C52.0983 56.2058 53.9048 55.1212 57.7475 55.2304C59.8503 55.2907 59.7988 55.3911 57.4337 55.8468ZM59.0858 64.6897C58.684 67.4239 53.1968 67.6788 52.313 65.0035C51.7656 63.3502 51.9602 63.3427 53.8985 64.9445C55.8481 66.5539 56.2486 66.5163 57.3031 64.6307C58.8372 61.8889 59.4938 61.9115 59.0858 64.6897ZM93.2472 80.3267C90.2556 81.1139 87.3205 81.1252 85.0872 80.3569C82.1785 79.3563 82.9543 79.1529 89.7597 79.1278C97.4038 79.099 97.6247 79.1755 93.2472 80.3267ZM62.1037 81.3737C60.6964 82.2638 61.0529 82.545 63.6064 82.5601C65.4468 82.5701 67.2056 81.8734 67.5144 81.0097C67.822 80.1472 68.5589 79.8949 69.1514 80.4498C71.6007 82.7459 65.7154 83.6321 48.4188 83.5719C35.988 83.528 31.7373 83.1928 35.1507 82.5236C38.2326 81.9186 34.474 81.7453 25.4215 82.073C16.2459 82.4056 10.6707 82.142 10.6707 81.375C10.6707 80.6067 20.6987 80.1547 37.3099 80.1748C54.2199 80.1949 63.275 80.633 62.1037 81.3737ZM43.0119 82.2111C44.5736 82.5111 46.8332 82.4998 48.0334 82.1859C49.2335 81.8721 47.9556 81.626 45.1937 81.6399C42.4319 81.6537 41.4502 81.911 43.0119 82.2111ZM53.0549 82.2111C54.6166 82.5111 56.8763 82.4998 58.0764 82.1859C59.2766 81.8721 57.9986 81.626 55.2368 81.6399C52.4749 81.6537 51.4932 81.911 53.0549 82.2111ZM83.1426 82.0817C82.7258 82.4985 81.6425 82.5437 80.7373 82.1809C79.7355 81.7805 80.0331 81.4829 81.4956 81.4227C82.8187 81.3687 83.5594 81.665 83.1426 82.0817ZM51.9941 89.2111C51.7066 89.4069 50.3408 90.3949 48.9599 91.408C46.6374 93.1115 46.5784 93.0852 48.1715 91.0527C49.1193 89.8438 50.4852 88.8558 51.2057 88.8558C51.9263 88.8558 52.2816 89.0152 51.9941 89.2111ZM53.0549 98.5059C51.8548 98.8197 49.5951 98.831 48.0334 98.531C46.4717 98.231 47.4534 97.9736 50.2152 97.9598C52.9771 97.946 54.2551 98.1921 53.0549 98.5059Z" fill="#D40000"/>
<path fill-rule="evenodd" clip-rule="evenodd" d="M57.3006 11.0385C54.9832 16.5534 52.3406 21.0652 51.4292 21.0652C49.8775 21.0652 47.2186 18.2017 43.6898 12.727C42.3817 10.6996 42.0151 10.6405 40.884 12.2776C40.1684 13.3133 39.5746 16.2986 39.5633 18.9123C39.547 23.1015 39.2758 23.5208 37.2798 22.4524C34.8921 21.1745 23.2773 9.55967 20.3209 5.49474C19.3655 4.18161 17.9846 3.47734 17.2514 3.92928C15.4663 5.03276 20.9636 20.1375 25.1478 25.6223L28.3101 29.7688L23.3777 32.2858C16.4229 35.8335 6.83555 45.682 3.13845 53.0775C0.336442 58.6815 0 60.9022 0 73.7912C0 87.1359 0.267396 88.7566 3.53641 95.208C8.56044 105.121 18.4503 114.832 28.2461 119.472C35.5323 122.922 37.9087 123.386 50.44 123.804C63.4156 124.236 65.0112 124.027 71.5818 121.019C80.5791 116.899 92.0119 105.374 96.825 95.5708C99.912 89.2826 100.493 86.4254 100.871 75.6831C101.521 57.1838 99.6961 50.9697 91.0741 42.3402C87.244 38.5062 81.1955 33.9266 77.6328 32.1628L71.155 28.9553L76.6423 22.814C87.2992 10.8853 87.4473 6.47645 76.926 14.4079C73.2816 17.1535 69.0196 20.0823 67.4529 20.9171C64.6659 22.4022 64.622 22.3256 65.4066 17.4133C66.4285 11.0247 64.9584 0.974115 63.0063 0.995456C62.1853 1.00424 59.618 5.52362 57.3006 11.0385ZM61.5451 21.005C59.6457 24.677 59.672 24.8314 62.1715 24.8314C65.094 24.8314 71.6785 21.7569 75.009 18.8357C79.6238 14.7896 76.9498 19.5324 71.8706 24.402C62.5418 33.3441 57.327 36.1298 49.9102 36.1298C37.9891 36.1298 28.3892 29.6219 23.0576 17.9268C19.4057 9.91494 20.3284 8.97466 25.7717 15.1599C31.136 21.2535 37.9389 26.0868 41.1526 26.0868C42.7646 26.0868 42.8637 25.4817 41.7414 22.5052C40.997 20.5367 40.7886 17.8841 41.2757 16.6137C42.0565 14.5799 42.4482 14.7708 44.5334 18.1992C46.9839 22.2277 51.0526 24.3707 53.4466 22.8906C54.1998 22.4248 55.9548 19.4232 57.3445 16.2195C63.0603 3.04549 62.6761 3.41709 63.1218 10.6481C63.3804 14.8448 62.8168 18.5457 61.5451 21.005ZM83.3899 38.3594C95.6098 46.7152 100.604 58.4919 99.4676 76.2719C98.6541 89.019 94.6331 97.8619 85.1035 107.86C75.9857 117.426 68.289 121.443 57.3107 122.362C34.8255 124.245 14.5988 112.89 4.76417 92.863C1.67091 86.5622 1.25538 84.3076 1.25538 73.7912C1.25538 64.1625 1.78641 60.7164 4.00969 55.9008C7.53856 48.2606 17.8013 37.4028 24.7963 33.909L30.2421 31.1886L36.3609 34.2869C45.2113 38.7674 54.7547 38.5828 62.2029 33.7885C67.4943 30.3814 68.0241 30.2835 72.1844 31.9456C74.601 32.911 79.6439 35.7971 83.3899 38.3594ZM78.7061 79.4405C78.7312 81.5118 79.0124 82.2073 79.3313 80.9858C79.6502 79.7643 79.6288 78.0696 79.2848 77.2197C78.9409 76.3698 78.681 77.3691 78.7061 79.4405ZM59.7298 79.5447C59.79 81.0072 60.0876 81.3047 60.488 80.3042C60.8508 79.3978 60.8056 78.3144 60.3888 77.8976C59.9721 77.4808 59.6758 78.2215 59.7298 79.5447ZM6.9046 81.3235L3.76614 82.3291L7.21844 82.4534C9.11783 82.5224 10.6707 82.014 10.6707 81.3235C10.6707 80.6331 10.5289 80.1246 10.3569 80.1937C10.1849 80.2627 8.63074 80.7712 6.9046 81.3235ZM93.2911 80.9256C94.1963 81.2884 95.2796 81.2432 95.6964 80.8264C96.1132 80.4096 95.3725 80.1133 94.0494 80.1673C92.5869 80.2276 92.2893 80.5251 93.2911 80.9256ZM84.5035 82.181C85.4086 82.5438 86.492 82.4986 86.9088 82.0818C87.3256 81.665 86.5849 81.3687 85.2617 81.4227C83.7992 81.483 83.5017 81.7805 84.5035 82.181ZM24.1811 83.4665C25.7428 83.7665 28.0025 83.7552 29.2027 83.4414C30.4028 83.1275 29.1248 82.8815 26.363 82.8953C23.6012 82.9091 22.6195 83.1664 24.1811 83.4665ZM68.7321 83.4439C69.9398 83.7602 71.9183 83.7602 73.1259 83.4439C74.3336 83.1288 73.3456 82.8702 70.929 82.8702C68.5124 82.8702 67.5244 83.1288 68.7321 83.4439ZM46.0223 92.1399C43.7161 95.2733 42.1168 98.123 42.467 98.4733C42.8173 98.8235 45.5502 99.3257 48.5418 99.5893C53.6274 100.039 52.962 99.6571 46.0963 98.1883L43.2341 97.5769L46.5596 93.2158C48.3887 90.818 50.2416 88.8634 50.6785 88.8709C51.1141 88.8797 52.721 90.8167 54.2488 93.1756C56.2147 96.2124 56.5813 97.646 55.5042 98.0829C54.6492 98.4294 54.9455 98.7445 56.1783 98.7997C57.386 98.8537 58.3752 98.5775 58.3752 98.1833C58.3752 97.4376 50.912 86.3087 50.4688 86.394C50.3295 86.4204 48.3284 89.0065 46.0223 92.1399Z" fill="#494949"/>
<path fill-rule="evenodd" clip-rule="evenodd" d="M57.4437 11.0222C54.9606 16.5459 52.2176 21.0652 51.3488 21.0652C49.8688 21.0652 47.176 18.1339 43.6898 12.727C42.3817 10.6995 42.0151 10.6405 40.884 12.2776C40.1684 13.3132 39.5746 16.2985 39.5633 18.9122C39.547 23.1015 39.2758 23.5207 37.2798 22.4524C34.8921 21.1744 23.2773 9.55966 20.3209 5.49473C19.3655 4.1816 17.9846 3.47733 17.2514 3.92927C15.4663 5.03275 20.9636 20.1375 25.1478 25.6223L28.3101 29.7688L23.3777 32.2858C16.4229 35.8335 6.83555 45.682 3.13845 53.0774C0.336442 58.6815 0 60.9022 0 73.7912C0 87.1359 0.267396 88.7566 3.53641 95.208C8.56044 105.121 18.4503 114.832 28.2461 119.472C35.5072 122.911 37.9276 123.386 50.2152 123.796C62.8858 124.217 64.6283 123.988 71.3546 121.012C80.5616 116.939 91.8876 105.625 96.825 95.5708C99.912 89.2826 100.493 86.4254 100.871 75.6831C101.521 57.1838 99.6961 50.9697 91.0741 42.3402C87.244 38.5062 81.1955 33.9266 77.6328 32.1628L71.155 28.9553L76.6423 22.814C87.2992 10.8853 87.4473 6.47644 76.926 14.4079C73.2816 17.1535 68.9895 20.0986 67.3863 20.9535C64.4914 22.4951 64.4764 22.465 65.3162 16.8647C66.2854 10.4045 65.0275 0.979126 63.1959 0.979126C62.5167 0.979126 59.9281 5.4985 57.4437 11.0222ZM61.4283 21.9992L59.3268 25.2055L63.5587 24.3807C65.8862 23.9275 70.2084 21.8649 73.1623 19.7998C80.8829 14.4017 81.1265 15.1461 74.0198 22.4198C66.3444 30.2772 61.8853 33.5538 56.0088 35.6528C53.0737 36.7023 52.382 37.2948 54.0492 37.3299C55.4678 37.3601 59.2088 35.7482 62.3623 33.7483L68.0969 30.1115L73.5703 32.562C83.6774 37.0864 91.7558 44.2458 95.6086 52.0895C98.8424 58.6777 99.1738 60.5821 99.1638 72.5358C99.1538 84.2147 98.7671 86.5446 95.763 92.9747C91.56 101.973 79.8347 114.472 71.7475 118.574C64.2529 122.377 51.7041 123.631 41.7803 121.57C25.3599 118.159 12.1596 107.921 4.76417 92.863C1.67091 86.5622 1.25538 84.3076 1.25538 73.7912C1.25538 64.1625 1.78641 60.7164 4.00969 55.9008C7.56869 48.194 17.8201 37.3927 24.9582 33.8287L30.5648 31.0279L34.7402 33.5738C37.0375 34.9748 39.4817 36.0997 40.1722 36.0746C40.8627 36.0495 39.7328 35.1368 37.6614 34.0471C31.097 30.5923 26.7597 25.6976 22.9797 17.4773C20.9624 13.0873 19.5588 9.24832 19.8614 8.94577C20.1639 8.64323 22.2893 10.7673 24.5841 13.6648C28.2423 18.2833 38.4862 26.0867 40.8915 26.0867C41.3623 26.0867 41.4602 23.5446 41.11 20.4375C40.6882 16.699 40.953 14.7883 41.8921 14.7883C42.6717 14.7883 43.3106 15.2767 43.3106 15.873C43.3106 17.6481 49.7846 23.576 51.723 23.576C52.726 23.576 55.5581 19.2838 58.143 13.8468L62.769 4.11758L63.1494 11.4553C63.4218 16.7116 62.9335 19.7031 61.4283 21.9992ZM42.9968 36.9609C43.8605 37.3099 45.2728 37.3099 46.1353 36.9609C46.999 36.6131 46.2922 36.3281 44.566 36.3281C42.8399 36.3281 42.1344 36.6131 42.9968 36.9609ZM47.7911 89.8363L45.3657 93.2496L48.0259 90.9297C49.6302 89.5299 51.3388 89.0027 52.3331 89.6015C53.6023 90.3648 53.5847 90.1037 52.259 88.4691C51.3112 87.3004 50.4638 86.3626 50.3759 86.384C50.2868 86.4066 49.1243 87.9595 47.7911 89.8363ZM43.5617 95.3838C41.6485 97.297 41.6297 98.8989 43.5203 98.8989C44.325 98.8989 44.6125 98.5273 44.158 98.0728C43.7036 97.6184 43.9622 96.4885 44.7305 95.5621C46.4667 93.4706 45.6067 93.3388 43.5617 95.3838ZM56.2825 97.071C56.2825 98.0766 56.7533 98.8989 57.3295 98.8989C57.9044 98.8989 58.3752 98.3678 58.3752 97.7175C58.3752 97.0672 57.9044 96.245 57.3295 95.8897C56.7533 95.5344 56.2825 96.0655 56.2825 97.071ZM47.3906 99.7638C48.5983 100.08 50.5768 100.08 51.7845 99.7638C52.9921 99.4487 52.0042 99.1901 49.5875 99.1901C47.1709 99.1901 46.183 99.4487 47.3906 99.7638Z" fill="black"/>
<path d="M54.5674 61.3645C54.684 60.082 55.3548 58.5912 55.7527 57.3688C55.8633 57.0292 56.0532 55.9796 56.0395 56.3365C55.9744 58.0284 55.66 59.7738 55.3895 61.4409C54.895 64.4883 54.4326 67.5369 53.9748 70.5888C53.632 72.8743 54.6842 66.0075 54.7299 63.6968C54.768 61.7733 54.7395 59.8472 54.7395 57.9233C54.7395 56.5954 54.4139 60.6063 53.841 61.8042C53.5265 62.4616 52.9491 63.8789 52.2351 64.2035C51.2268 64.6618 51.7051 59.6603 51.738 59.2137C51.8852 57.2158 52.2744 55.2651 52.713 53.3159C53.2045 51.1313 51.8753 57.7192 51.2983 59.8828C50.7582 61.9083 50.193 63.9296 49.5777 65.9336C49.4617 66.3116 48.2239 69.0325 48.5836 69.4322C48.6208 69.4736 50.1285 66.9655 50.1703 66.8895C51.4037 64.6532 52.6869 62.4387 53.841 60.16C54.5082 58.8426 55.203 57.5256 55.8197 56.1835C56.3718 54.9818 54.9514 58.1678 54.9402 58.1909C53.5724 61.0193 52.1399 63.8455 50.5145 66.5358C50.458 66.6293 49.0997 68.5769 49.0997 68.2182C49.0997 67.0638 49.6252 65.7754 49.96 64.691C50.4975 62.9508 51.2098 61.3017 51.9101 59.6247C52.1286 59.1014 52.3322 58.669 52.8851 58.4777C53.855 58.1419 53.5351 59.2559 53.5351 59.9689C53.5351 60.3257 53.2159 61.1991 53.5351 61.0395C53.8062 60.9039 54.4247 59.1605 54.5674 58.8791C55.1572 57.7163 55.7971 56.5951 56.4314 55.4571C56.7898 54.8141 57.0403 54.0739 57.5689 53.5453C57.8904 53.2239 57.8366 53.4853 57.8366 53.8512C57.8366 55.1958 57.8366 56.5404 57.8366 57.885C57.8366 59.3073 57.6645 62.1483 57.6645 62.1483C57.6645 62.1483 57.6645 59.6502 57.6645 58.4012C57.6645 57.5723 57.4925 56.7612 57.4925 55.9541C57.4925 55.4449 57.2178 56.4029 57.1866 56.4703C56.5865 57.7665 55.9744 59.0624 55.2652 60.3034C54.5309 61.5884 52.141 65.1204 50.8586 62.6167C49.7885 60.5275 49.1265 57.9905 48.7174 55.6865C48.5882 54.959 48.4603 54.2328 48.2394 53.5262C48.2281 53.49 47.4174 55.359 47.3027 55.6291C45.2827 60.3851 43.0416 65.0492 40.5636 69.5851C39.8163 70.9531 39.0969 72.318 38.5085 73.7624C38.2738 74.3383 38.7425 72.5457 38.757 72.491C39.7585 68.7075 41.0709 65.1518 42.657 61.5748C43.2445 60.2499 43.8639 58.9404 44.4541 57.6174C44.4992 57.5163 44.9221 56.5374 44.9321 57.0056C44.9833 59.4125 44.8396 61.8639 44.7504 64.2704C44.7148 65.2326 44.151 67.3714 45.3144 65.5513C45.9575 64.5451 46.5568 63.5081 47.1688 62.4829C47.7639 61.4861 48.6046 60.4767 49.0137 59.3858C49.8597 57.1299 47.6 64.0011 46.6622 66.2204C46.3967 66.8489 46.1049 67.4682 45.7924 68.0748C45.5708 68.5049 46.1058 66.9941 46.1365 66.8895C46.9565 64.0969 47.9482 61.3592 48.7174 58.5541C48.7258 58.5236 48.9516 57.7204 48.7843 57.9806C48.2552 58.8037 47.8152 59.7291 47.3505 60.5902C46.3627 62.4205 45.1971 64.518 44.5975 66.5167C44.4115 67.1367 44.4306 66.5046 44.4541 66.2013C44.5742 64.6554 44.7304 63.126 44.7982 61.5748C44.8442 60.5223 44.822 59.5074 44.7696 58.4586C44.7475 58.0176 44.8993 57.3222 44.6644 56.9196C44.5138 56.6613 43.7462 57.1829 43.5556 57.2733C43.1007 57.4887 42.9073 57.1425 42.5232 56.9291C41.8603 56.5609 40.562 56.1849 40.9747 55.2563C41.5075 54.0575 42.9658 54.7696 43.7659 54.9982C46.2109 55.6968 48.9825 55.8344 51.2983 56.9291C52.3165 57.4105 53.7077 58.0528 54.8351 58.2578C56.3115 58.5263 57.626 58.9407 57.6645 60.7145C57.6881 61.7992 57.6051 62.8008 57.2344 63.8307C57.1593 64.0391 56.4601 65.4037 56.4601 64.863C56.4601 61.9882 56.2377 59.2262 55.9535 56.3843C55.8792 55.641 55.9484 54.1057 55.0454 54.1379C53.8687 54.18 52.7517 54.9533 51.6329 55.2563C50.9956 55.4289 49.4884 56.042 48.813 55.849C48.5158 55.7641 49.1422 55.3951 49.1762 55.3806C50.0565 55.0033 51.131 54.8367 52.0821 54.8262C52.5228 54.8213 53.9057 54.8146 54.1851 55.3424C54.3323 55.6204 54.3103 55.9806 54.4814 56.2887C54.9516 57.1351 53.2035 56.0337 52.9233 55.8585C51.0925 54.7143 49.4786 53.7938 47.2644 53.7938C46.3132 53.7938 45.4019 53.6217 44.4159 53.6217C43.3798 53.6217 43.1847 54.5138 42.7622 55.3901C40.2751 60.5487 39.1874 65.8133 38.843 71.5351C38.4862 77.4644 38.2562 83.5116 39.082 89.4103C39.3071 91.0183 39.5282 92.6352 39.8467 94.228C39.866 94.3241 40.205 95.6497 40.296 95.3464C41.0528 92.8237 41.6338 90.2948 42.5232 87.8044C42.9883 86.5022 43.547 85.2364 44.0335 83.9426C44.3228 83.1735 44.426 82.3187 44.76 81.572C44.8084 81.4637 44.9321 81.0812 44.9321 81.4095C44.9321 83.1935 44.7078 84.9822 44.3299 86.7242C44.0832 87.8609 43.7942 89.028 43.4696 90.1463C43.3756 90.4698 43.162 90.9737 43.307 90.2897C44.0117 86.9679 44.0547 83.3297 44.0718 79.947C44.0785 78.6088 44.0718 77.2704 44.0718 75.9322C44.0718 75.2604 43.9628 75.8802 43.8615 76.1808C42.8701 79.1195 41.6437 82.2322 39.4739 84.5161C38.5598 85.4784 37.3499 85.7748 36.0805 85.3382C33.2927 84.3792 30.7272 82.99 27.8599 82.2029C26.4685 81.8209 24.8525 81.8396 23.415 81.8396C20.361 81.8396 17.1895 82.736 14.1715 82.1455C12.5377 81.8259 10.8996 81.6676 9.23911 81.6676C7.89383 81.6676 6.68894 82.3558 5.3582 82.3558C3.59382 82.3558 8.86167 81.8861 10.6252 81.8301C15.5814 81.6727 20.5493 81.4089 25.4893 80.9793C29.1526 80.6608 32.8465 80.5777 36.5011 80.2529C39.783 79.9611 43.1912 79.6029 46.4806 79.6029C46.7698 79.6029 46.7465 79.7176 46.538 79.8705C45.6981 80.4864 44.45 80.6716 43.4696 80.9029C37.3933 82.336 31.087 82.0795 24.9253 82.9485C24.474 83.0121 23.1619 83.3649 23.5775 83.1779C24.6736 82.6846 26.0209 82.5373 27.1907 82.3558C30.6807 81.8143 34.2257 81.4151 37.7629 81.4955C40.8819 81.5664 31.6965 82.9864 28.615 83.4742C24.5048 84.1249 20.3538 84.5705 16.2649 85.3478C15.3698 85.5179 13.3673 86.0078 15.309 85.1757C17.5362 84.2212 19.8702 83.6046 22.1054 82.6999C23.8131 82.0087 18.5002 83.4758 16.6759 83.7323C14.1791 84.0834 11.3726 84.6067 8.83764 84.5161C8.57006 84.5066 8.47016 83.4551 8.45528 83.2544C8.34956 81.8271 7.76242 82.0421 6.55306 82.1933C6.0568 82.2553 3.6376 83.3468 3.6376 82.5279C3.6376 81.7817 3.91566 81.2586 4.45966 80.769C4.63441 80.6118 5.0741 80.4142 5.31996 80.4918C7.78877 81.2715 10.159 83.1333 12.4127 84.3441C17.0277 86.8235 21.52 88.3116 26.7032 89.0471C35.5569 90.3033 44.9289 90.4171 53.6498 88.1676C56.7108 87.3781 58.2887 85.5645 58.3528 82.3941C58.3627 81.9003 58.4514 81.2653 58.3432 80.7786C58.3089 80.6244 58.1012 80.9823 57.9895 81.094C57.4334 81.6502 56.8696 82.1976 56.3167 82.7573C52.8499 86.267 48.8929 89.3533 46.2607 93.5971C45.7733 94.383 45.1216 95.3166 44.9703 96.2545C44.7914 97.3634 45.9586 95.6127 46.0409 95.4897C46.9999 94.0568 47.907 92.5593 48.6409 90.9971C48.6755 90.9235 49.4547 88.7906 49.3674 88.7985C48.9814 88.8336 48.0598 90.3679 47.8666 90.5956C45.9909 92.8073 43.7473 94.5755 41.4622 96.3405C40.1837 97.3279 38.9838 98.4739 37.6386 99.3707C36.6852 100.006 37.8158 98.8701 38.0019 98.6633C39.8304 96.6316 41.7563 94.6507 43.6894 92.7177C43.9473 92.4597 44.064 92.3117 44.0718 92.7941C44.0927 94.0942 44.0384 95.3906 43.8232 96.6751C43.6426 97.7533 43.4506 98.8965 43.1254 99.9442C42.8468 100.842 43.4478 99.6366 43.5747 99.4185C43.7233 99.1631 45.7309 94.9056 45.5821 94.8684C44.9238 94.7039 42.3591 98.7534 41.9497 99.2751C41.9397 99.2878 41.2461 100.026 41.4526 99.7817C42.1731 98.9303 43.3506 98.4419 44.349 98.0229C45.6824 97.4632 47.0919 97.0135 48.5071 96.7133C49.0539 96.5973 50.2065 96.244 50.7821 96.503C51.7657 96.9456 50.5205 99.13 50.2659 99.6957C50.0315 100.217 49.7996 100.812 49.4152 101.244C48.994 101.718 49.1353 101.144 49.2814 100.881C51.2186 97.3939 55.5749 95.5475 59.28 94.6964C59.6446 94.6126 60.6399 94.2453 61.0293 94.4765C61.573 94.7994 60.1034 96.2851 59.9204 96.4648C58.6769 97.6852 57.0552 98.6253 55.466 99.3133C55.2019 99.4276 53.5212 100.314 53.191 100.002C52.8554 99.6837 53.0769 98.8033 53.1336 98.453C53.3945 96.84 53.91 95.273 54.5866 93.7883C55.1413 92.5709 55.7973 91.3967 56.7278 90.4235C56.8948 90.2488 57.8366 89.1222 57.8366 89.8691C57.8366 91.4969 57.0202 93.8017 55.8579 94.964C54.6809 96.141 53.8457 94.7113 53.6307 93.5971C52.8138 89.3642 55.7851 76.5294 54.7395 80.7117C53.9053 84.0484 52.9557 87.3798 51.9101 90.6625C51.2414 92.7618 50.5575 94.8568 49.6924 96.8853C49.0062 98.4943 49.0917 97.2647 49.2622 96.2736C50.1876 90.895 51.2791 85.5487 52.5983 80.2529C53.0567 78.4126 54.6803 72.9646 54.0321 74.7469C52.7212 78.352 50.4271 81.7514 48.2394 84.8602C46.4791 87.3618 44.4716 89.6131 42.4659 91.9147C41.7242 92.7658 39.8721 95.5283 40.2291 94.4574C40.6801 93.1042 41.5523 91.7633 42.1982 90.5C43.5437 87.8684 44.872 85.2289 46.1938 82.5852C46.803 81.367 47.5645 80.1371 48.0196 78.8477C48.0491 78.7642 48.3542 78.1651 48.3542 78.5609C48.3542 80.2347 47.7951 82.0633 47.4365 83.6749C46.8686 86.2272 46.2054 88.7619 45.4482 91.2647C45.3114 91.7172 44.958 92.9745 45.1806 91.7044C45.4832 89.9776 45.6583 88.2733 45.7924 86.5235C45.9671 84.2426 45.9761 81.901 46.299 79.6411C46.8141 76.0352 45.9836 86.9298 45.4865 90.5382C45.2105 92.5417 44.8495 94.1373 43.6512 95.767C43.5002 95.9723 43.0947 96.7978 42.8004 96.8567C42.6163 96.8935 42.8734 96.4859 42.9438 96.3118C43.2129 95.6465 43.5173 94.9915 43.8615 94.3618C46.2053 90.073 49.8529 86.4914 53.3057 83.1014C53.5849 82.8273 54.3287 82.1176 54.3189 82.5088C54.2793 84.0924 53.5377 85.8933 53.191 87.422C52.2174 91.7141 51.2366 96.1238 49.7593 100.279C49.6586 100.562 49.3358 101.855 48.9659 101.961C48.0044 102.236 48.1981 100.717 48.163 100.174C48.0971 99.1562 48.0291 98.1443 48.0291 97.1243C48.0291 96.8555 48.3293 96.1722 48.1056 96.3214C47.9253 96.4416 47.873 97.2203 47.8189 97.4015C47.5452 98.3173 47.1549 99.15 46.7291 100.002C46.2679 100.924 46.1225 101.085 46.1365 99.9633C46.1619 97.9281 46.5514 95.9016 46.9012 93.903C46.964 93.5441 47.0524 92.4548 46.9872 92.8133C46.819 93.7386 46.5026 94.6456 46.213 95.5375C45.588 97.4624 44.877 99.3581 44.1482 101.244C44.1214 101.314 44.071 101.527 44.11 101.464C44.3741 101.035 44.6224 100.59 44.8747 100.154C46.521 97.3109 48.1823 94.4757 49.788 91.6088C52.4021 86.9417 55.2811 82.1089 56.8711 76.9646C57.3257 75.4939 57.8476 74.2342 58.6586 72.9307C59.0642 72.2789 59.6526 71.1511 59.4616 72.6249C58.981 76.3323 58.6969 79.9542 58.6969 83.6941C58.6969 84.2615 58.5367 85.1312 58.7351 85.6823C58.7418 85.7009 59.3407 83.6761 59.3851 83.4455C60.3048 78.6732 61.3018 73.8514 61.794 69.0116C61.888 68.0872 62.0375 67.1048 61.9565 66.1726C61.9391 65.9726 61.2682 68.0716 61.1918 68.3807C60.1306 72.6716 59.6328 77.1025 59.127 81.486C58.9664 82.8781 58.8404 87.0835 58.8689 85.6823C58.9616 81.1414 59.366 76.6112 59.366 72.0609C59.366 69.3049 59.2918 66.5297 59.2131 63.7733C59.1629 62.0189 57.9418 67.0452 57.3204 68.6866C57.2584 68.8505 56.3104 71.6139 55.8675 71.4873C55.6071 71.413 56.116 66.4155 56.116 65.8571C56.116 65.755 56.2031 64.7768 56.0395 64.7483C55.2692 64.6144 53.2461 67.484 52.8468 67.941C51.8612 69.0691 50.9797 70.3816 49.9218 71.4395C49.6482 71.7132 49.7856 70.6051 49.788 70.5792C49.9377 68.9321 50.0939 67.2825 50.0939 65.6277C50.0939 64.7547 50.1035 67.3739 50.0939 68.2469C50.0893 68.6613 49.6455 71.8769 50.4667 70.5219C51.8895 68.1742 52.8042 65.5693 53.8601 63.0468C54.016 62.6744 54.2558 62.0666 54.013 62.8556C53.6096 64.1669 53.4187 65.553 53.2292 66.9086C52.8906 69.3306 52.4853 72.1442 53.0189 74.5749C53.6887 77.6264 55.55 82.1046 59.3756 81.3999C60.5279 81.1876 61.4302 80.3228 62.6352 80.2911C64.5138 80.2417 66.2786 80.6433 68.1315 80.7977C68.6855 80.8439 69.3401 80.894 69.8808 81.0176C71.1747 81.3133 69.5658 81.7773 68.944 82.0882C66.9304 83.095 64.8037 84.3845 62.5682 84.8316C62.3719 84.8708 59.7857 85.1558 59.93 84.5066C59.9899 84.2369 60.7345 83.9895 60.9337 83.8661C61.7359 83.369 62.4996 82.8251 63.3425 82.3941C63.7782 82.1712 65.8652 81.3052 65.8469 81.3235C64.2925 82.8779 61.1549 83.5086 59.1175 83.8757C57.8029 84.1125 56.4401 84.2485 55.1027 84.2485C54.7327 84.2485 54.2111 84.0536 54.7586 83.6941C56.1404 82.7866 58.2154 82.7055 59.7866 82.5374C64.028 82.0838 68.305 81.9425 72.5669 82.1073C73.029 82.1252 77.8326 81.9262 78.1301 82.9676C78.473 84.1676 75.6683 84.305 75.0808 84.4205C74.823 84.4712 72.6464 85.1675 72.4044 84.8985C72.181 84.6503 74.4041 83.5872 74.4691 83.5602C76.2237 82.8317 78.1023 82.3893 79.9463 81.9543C80.6768 81.7821 82.3523 81.1301 83.1294 81.3521C83.378 81.4231 82.6928 81.631 82.4603 81.744C81.6349 82.1454 80.79 82.492 79.9272 82.8051C77.393 83.7248 74.8398 84.3957 72.1558 84.6691C71.8688 84.6983 67.5797 84.9825 67.6823 84.7647C68.0953 83.887 69.8369 83.3545 70.6455 83.0536C70.9299 82.9478 73.0203 82.0778 71.8308 82.7764C69.7282 84.0113 67.4727 85.0791 65.1396 85.797C62.2387 86.6896 70.2901 82.5835 72.9014 81.0367C75.1661 79.6952 77.3944 78.2451 79.4684 76.6205C80.116 76.1132 80.9522 75.6111 81.4758 74.9668C81.6371 74.7682 81.7784 74.5951 81.7147 74.9955C81.5894 75.7833 81.5341 76.5777 81.4088 77.3661C81.2098 78.6188 80.7691 80.0256 80.7206 81.2852C80.6637 82.7642 81.419 75.6816 80.5103 76.8499C79.4173 78.2552 78.5805 79.8398 77.7191 81.3904C77.6194 81.5698 76.9907 82.6287 77.0404 82.4896C77.2668 81.8557 77.5552 81.241 77.8051 80.6161C78.1635 79.7203 78.5324 78.84 78.8279 77.9205C78.8768 77.7684 79.4653 76.0746 79.1338 77.0028C78.294 79.3544 77.6751 82.1487 77.6235 84.65C77.6179 84.9241 77.4886 85.5546 77.8243 85.7014C78.6282 86.0532 79.8587 85.4801 80.5581 85.1566C83.02 84.018 86.103 81.8276 87.4118 79.3734C88.1914 77.9117 85.9932 82.3681 85.328 83.8852C84.4136 85.9707 81.7575 92.227 82.3265 90.0221C82.9025 87.7902 83.8172 85.6083 84.6015 83.4455C85.0875 82.1055 85.5878 80.7708 86.0736 79.4308C86.1828 79.1295 86.6713 78.4354 86.3604 78.5131C85.9901 78.6057 85.3586 79.5488 85.1177 79.8131C84.414 80.5852 83.6959 81.3688 82.9574 82.1073C82.2953 82.7694 81.6914 83.4252 81.7625 82.1455C81.825 81.0211 82.1788 79.9383 82.4316 78.8477C82.587 78.1777 82.6054 77.3448 82.8714 76.7065C83.4816 75.2419 81.7864 82.238 83.1677 81.4573C85.2359 80.2883 87.0314 78.5937 88.8361 77.0697C89.6258 76.4029 90.1839 75.6838 90.1839 77.0602C90.1839 78.196 90.0119 79.3082 90.0119 80.444C90.0119 81.544 90.9532 80.3475 91.3788 79.947C91.5928 79.7455 93.1388 77.8694 92.8222 78.5514C92.15 79.9991 90.6045 82.7955 90.6045 82.7955C90.6045 82.7955 92.1219 80.5631 93.0038 79.5455C93.6065 78.85 93.4531 80.4889 93.4531 80.7977C93.4531 81.9867 96.2018 77.8906 94.9156 80.4632C93.9851 82.3241 95.204 79.7434 93.8928 80.1955C92.716 80.6013 91.607 81.4232 90.5472 82.0499C87.9364 83.5937 85.3663 85.2318 82.6993 86.6764C81.6783 87.2295 80.2782 88.1867 79.0478 88.1867C78.495 88.1867 79.0742 86.6574 79.1243 86.4853C80.5859 81.4649 83.0468 76.7001 85.003 71.8601C85.294 71.1401 86.0887 69.6977 85.978 68.8395C85.9554 68.6641 83.3004 71.43 83.1486 71.5925C78.3792 76.6961 73.0958 81.6801 66.994 85.147C65.6318 85.921 63.6899 87.209 62.0234 87.1257C61.0082 87.0749 60.6837 85.1947 60.5035 84.4875C58.6679 77.281 59.7466 69.3152 61.1057 62.1292C61.6027 59.5015 62.0983 56.8403 62.9219 54.2909C62.9562 54.1848 63.0932 53.6575 63.2087 54.0041C64.4026 57.5857 61.6016 62.1185 59.519 64.7483C54.9673 70.496 48.1985 74.6975 40.9938 76.1903C38.7222 76.661 37.7808 76.1947 37.9158 73.8484C38.0103 72.2078 38.2962 70.553 38.5658 68.9351" stroke="#D40202" stroke-width="3" stroke-linecap="round"/>
<path d="M56.7255 87.14C56.1438 86.9314 55.503 87.2338 55.2944 87.8156V87.8156C55.0857 88.3973 55.3882 89.038 55.9699 89.2467L62.1121 91.4497C64.7114 92.3819 67.5743 91.0305 68.5066 88.4312L70.7096 82.289C70.9182 81.7073 70.6158 81.0666 70.034 80.8579V80.8579C69.4523 80.6493 68.8116 80.9517 68.6029 81.5335L67.1555 85.569C66.2232 88.1683 63.3603 89.5197 60.7611 88.5874L56.7255 87.14Z" fill="#1B1B1B"/>
<circle cx="47" cy="67" r="7" fill="black"/>
<circle cx="74" cy="67" r="7" fill="black"/>
</svg>
